<svg width="120" height="120" fill="none" xmlns="http://www.w3.org/2000/svg"><path d="M0 60C0 26.863 26.863 0 60 0s60 26.863 60 60-26.863 60-60 60S0 93.137 0 60Z" fill="#F1F3F4"/><path d="m41.582 84.294-8.916-28.116a4.54 4.54 0 0 1 1.553-4.884l22.99-17.857a4.441 4.441 0 0 1 5.504.038l23.065 18.419a4.54 4.54 0 0 1 1.5 4.865l-8.9 27.556a4.474 4.474 0 0 1-4.271 3.185H45.863a4.48 4.48 0 0 1-4.281-3.206Z" fill="#4285F4"/><path d="M87.472 55.284c.016.488-.047.985-.197 1.47l-8.9 27.555a4.477 4.477 0 0 1-4.272 3.185h-28.24a4.48 4.48 0 0 1-4.282-3.207l-8.915-28.115a4.532 4.532 0 0 1-.191-1.45c.016.381.075.762.19 1.137l8.916 28.116a4.48 4.48 0 0 0 4.281 3.206h28.241c1.96 0 3.694-1.29 4.272-3.184l8.9-27.556c.116-.382.181-.77.197-1.157Z" fill="#1A237E" fill-opacity=".2"/><path d="M87.471 55.59a4.518 4.518 0 0 0-1.694-3.39L62.712 33.781a4.441 4.441 0 0 0-5.503-.037L34.218 51.6a4.53 4.53 0 0 0-1.74 3.428 4.531 4.531 0 0 1 1.74-3.74l22.99-17.857a4.441 4.441 0 0 1 5.504.038l23.065 18.419a4.525 4.525 0 0 1 1.694 3.703Z" fill="#fff" fill-opacity=".2"/><path d="M89.816 72.666 62.31 47.5h-4.66l-10.1 26.25L66.189 90h23.616l.012-17.334Z" fill="url(#a)"/><path d="m65.73 67.5 2.332 6.25h4.35l-10.1-26.25h-4.66l-10.1 26.25h4.354l2.331-6.25h11.494Zm-10.252-3.75 4.506-12.5 4.506 12.5h-9.012Z" fill="#F5F5F5"/><path d="M62.315 47.5h-4.662l-.122.313h4.903l-.119-.313Zm-6.837 16.25-.113.313h9.238l-.113-.313h-9.012Z" fill="#fff" fill-opacity=".4"/><path d="M72.412 73.75h-4.35l-2.331-6.25H54.234l-2.331 6.25h-4.35l.36.313h3.993l2.331-6.25h11.497l2.331 6.25h4.35v-.313h-.003ZM59.984 51.562l4.394 12.188h.112l-4.506-12.5-4.506 12.5h.112l4.394-12.188Z" fill="#1A237E" fill-opacity=".1"/><path d="m41.609 84.294-8.92-28.116a4.539 4.539 0 0 1 1.554-4.884l22.99-17.856a4.441 4.441 0 0 1 5.504.037l23.065 18.419a4.54 4.54 0 0 1 1.5 4.865l-8.9 27.557A4.474 4.474 0 0 1 74.13 87.5H45.888a4.476 4.476 0 0 1-4.278-3.206Z" fill="url(#b)"/><defs><radialGradient id="b" cx="0" cy="0" r="1" gradientUnits="userSpaceOnUse" gradientTransform="matrix(55.7354 0 0 56.0719 37.934 47.969)"><stop stop-color="#fff" stop-opacity=".1"/><stop offset="1" stop-color="#fff" stop-opacity="0"/></radialGradient><linearGradient id="a" x1="52.273" y1="56.798" x2="85.009" y2="89.535" gradientUnits="userSpaceOnUse"><stop stop-color="#1A237E" stop-opacity=".2"/><stop offset="1" stop-color="#1A237E" stop-opacity="0"/></linearGradient></defs></svg>