<svg width="120" height="120" fill="none" xmlns="http://www.w3.org/2000/svg"><path d="M0 60C0 26.863 26.863 0 60 0s60 26.863 60 60-26.863 60-60 60S0 93.137 0 60Z" fill="#F1F3F4"/><path d="m82.733 72.741-12.65-7.334c-1.867 3.217-5.337 5.38-9.325 5.38h-.011l-2.202 7.335 2.202 8.877c.61 0 1.236-.156 1.78-.475L82.75 74.803c.005-.006.01-.006.016-.011.777-.459.745-1.603-.032-2.05Z" fill="#7B1FA2"/><path d="m51.43 65.408-7.777 1.97-6.184 6.125c.307.529.75.982 1.295 1.3l20.221 11.722a3.46 3.46 0 0 0 1.76.475V70.788c-3.983 0-7.448-2.169-9.315-5.38Z" fill="#4A148C"/><path d="m60.756 49.212 4.846-8.306L60.756 33c-.61 0-1.22.157-1.77.475L38.77 45.202a3.604 3.604 0 0 0-1.295 1.3l5.261 7.092 8.7 1.003c1.861-3.216 5.337-5.386 9.32-5.386Z" fill="#7B1FA2"/><path d="M82.765 45.208c-.005-.005-.01-.005-.016-.01L62.528 33.48a3.513 3.513 0 0 0-1.77-.475v16.212c3.988 0 7.458 2.17 9.325 5.38l12.65-7.334c.777-.453.81-1.597.032-2.056Z" fill="#4A148C"/><path d="M49.968 59.998c0-1.975.54-3.815 1.463-5.407l-13.956-8.095a3.56 3.56 0 0 0-.475 1.78V71.72c0 .636.167 1.246.475 1.775L51.43 65.4a10.704 10.704 0 0 1-1.463-5.402Z" fill="#BA68C8"/><path d="m82.68 72.627-12.623-7.313c-1.862 3.206-5.327 5.37-9.304 5.37-.934 0-1.835-.13-2.698-.356l16.066 9.32 8.553-4.96a1.192 1.192 0 0 0 .005-2.061Z" fill="url(#a)"/><path d="m62.745 58.768 7.323-4.253c-1.867-3.221-5.343-5.39-9.331-5.39-3.988 0-7.464 2.169-9.33 5.385l7.371 4.253a3.935 3.935 0 0 0 3.967.005Z" fill="#E1BEE7"/><path d="m70.083 54.597-7.324 4.252a3.958 3.958 0 0 1-3.972 0l-7.371-4.252a10.72 10.72 0 0 0-1.463 5.402c0 5.963 4.83 10.793 10.793 10.793 5.964 0 10.794-4.83 10.794-10.793 0-1.97-.535-3.81-1.457-5.402Z" fill="#F2F2F2"/><defs><linearGradient id="a" x1="59.471" y1="60.55" x2="83.267" y2="84.346" gradientUnits="userSpaceOnUse"><stop offset=".33" stop-color="#1A237E" stop-opacity=".15"/><stop offset=".66" stop-color="#1A237E" stop-opacity=".02"/><stop offset="1" stop-color="#1A237E" stop-opacity="0"/></linearGradient></defs></svg>