<svg width="123" height="123" fill="none" xmlns="http://www.w3.org/2000/svg"><path d="M45.27 62 26.635 36.753 8 62l18.635 25.247L45.27 62Z" fill="#65B867" stroke="#202124" stroke-width="1.5" stroke-linejoin="round"/><path d="M71.118 62H45.5L26.635 36.753h25.419L71.118 62ZM71.118 62H45.5L26.635 87.247h25.419L71.118 62Z" fill="#F6BD41" stroke="#202124" stroke-width="1.5" stroke-linejoin="round"/><path d="M89.153 36.753 70.517 11.506 51.883 36.753 70.518 62l18.635-25.247Z" fill="#EC5E4F" stroke="#202124" stroke-width="1.5" stroke-linejoin="round"/><path d="M115.001 36.753H89.383L70.518 11.506h25.418l19.065 25.247Z" fill="#538FF7" stroke="#202124" stroke-width="1.5" stroke-linejoin="round"/><path d="M115.001 36.753H89.383L70.518 62h25.418l19.065-25.247Z" fill="#202124" stroke="#202124" stroke-width="1.5" stroke-linejoin="round"/><path d="M89.153 87.247 70.517 62 51.883 87.247l18.635 25.247 18.635-25.247Z" fill="#65B867" stroke="#202124" stroke-width="1.5" stroke-linejoin="round"/><path d="M115.001 87.247H89.383L70.518 62h25.418l19.065 25.247ZM115.001 87.247H89.383l-18.865 25.247h25.418l19.065-25.247Z" fill="#538FF7" stroke="#202124" stroke-width="1.5" stroke-linejoin="round"/></svg>